<svg xmlns="http://www.w3.org/2000/svg" width="16" height="16" viewBox="0 0 16 16"><path style="fill:#3a71ad;" d="M16 3.538c-.588.263-1.222.438-1.884.516.678-.406 1.197-1.05 1.444-1.816-.634.375-1.338.65-2.084.797C12.876 2.397 12.023 2 11.08 2 9.265 2 7.797 3.47 7.797 5.283c0 .256.028.506.084.747-2.728-.14-5.147-1.445-6.766-3.432-.28.484-.444 1.05-.444 1.65 0 1.138.578 2.144 1.46 2.73-.54-.015-1.045-.165-1.49-.408v.04c0 1.592 1.132 2.92 2.635 3.22-.275.075-.566.116-.866.116-.21 0-.415-.022-.618-.06.42 1.304 1.63 2.254 3.066 2.282-1.125.88-2.538 1.406-4.078 1.406-.266 0-.525-.016-.784-.047 1.456.934 3.18 1.475 5.034 1.475 6.037 0 9.34-5.003 9.34-9.34 0-.145-.002-.285-.008-.426.64-.46 1.197-1.038 1.637-1.697z"/></svg>